<svg xmlns="http://www.w3.org/2000/svg" width="129.069" height="179.736" viewBox="0 0 129.069 179.736">
  <g id="Group_3942" data-name="Group 3942" transform="translate(-42.003 -232.94)">
    <path id="Path_4823" data-name="Path 4823" d="M166.411,312.683l-.24,9.107a6.836,6.836,0,0,1,2.876,4.793c.213,3.383-2.837,6.138-5.512,6.71-3.747.8-8.466-2.316-9.826-7.909a9.4,9.4,0,0,1,12.7-12.7Z" fill="#263959"/>
    <path id="Path_4824" data-name="Path 4824" d="M146.52,282.727a39.839,39.839,0,0,1,19.172,2.4,31.041,31.041,0,0,1,2.876,5.273c3.925,9.237,2.347,18.126,1.2,22.527l-11.983,5.991Z" fill="#ff9a1d"/>
    <path id="Path_4825" data-name="Path 4825" d="M73.068,344.2l-7.909.719c-1.795-.394-3.723-.9-5.751-1.558A61.5,61.5,0,0,1,51.14,340a4.14,4.14,0,0,0-.839-3c-.518-.583-.814-.442-1.318-.958-1.433-1.465-.305-3.886-1.318-4.434-.541-.292-1.38.119-1.8.6a2.785,2.785,0,0,0,.48,3.6c-2.25-.68-4.069.254-4.314,1.318s1.132,2.223,1.2,2.277a4.441,4.441,0,0,0,.48,2.756c1.008,1.774,3.417,2.678,5.991,2.157a41.549,41.549,0,0,0,16.416,8.867L76.3,349.709Z" fill="#263959"/>
    <path id="Path_4826" data-name="Path 4826" d="M86.907,335.929a64.136,64.136,0,0,1-17.254,6.47,9.645,9.645,0,0,0,.539,4.853c1.671,4.239,6.562,7.01,12.4,7.19Q84.749,345.186,86.907,335.929Z" fill="#f56811"/>
    <path id="Path_4827" data-name="Path 4827" d="M135.706,359.2c-1.049.924-2.186,1.859-3.415,2.786a58.371,58.371,0,0,1-9.526,5.841,1.966,1.966,0,0,1,1.168,1.348,1.928,1.928,0,0,1-1.438,2.067,7.287,7.287,0,0,1-2.606-1.348,7.482,7.482,0,0,1-2.427-3.684l11.953-11.863Z" fill="#263959"/>
    <path id="Path_4828" data-name="Path 4828" d="M128.842,343.339a25.674,25.674,0,0,1,6.512,9.026,5.835,5.835,0,0,1-1.434,2.093,5.971,5.971,0,0,1-3.335,1.523l-8.455-7.586Z" fill="#263959"/>
    <path id="Path_4829" data-name="Path 4829" d="M120.518,333.053a37.724,37.724,0,0,0,13.3,6.291,18.537,18.537,0,0,1-2.157,4.493,20.185,20.185,0,0,1-10.245,7.729Q120.967,342.309,120.518,333.053Z" fill="#f56811"/>
    <path id="Path_4830" data-name="Path 4830" d="M115.306,369.9a9.067,9.067,0,0,1-9.211,8.267q-1.1,2.382-2.2,4.764l8.829,4-1.924,2.992-8.121-4.488-1.924,2.351a21.428,21.428,0,0,1-10.43-.81q-.583-1.213-1.168-2.426l-6.86,4.463L79.778,385.3l8.028-3.715q-.4-3.055-.809-6.111a10.107,10.107,0,0,1-3.954-3.235,11.194,11.194,0,0,1-1.438-9.167Z" fill="#263959"/>
    <path id="Path_4831" data-name="Path 4831" d="M120.843,327.541a67.215,67.215,0,0,1-2.565,46.593,63.017,63.017,0,0,1-15.389.855,64.511,64.511,0,0,1-27.784-8.549,82.913,82.913,0,0,0,10.686-38.471Z" fill="#ff9a1d"/>
    <path id="Path_4832" data-name="Path 4832" d="M112.561,380.393a22.9,22.9,0,0,0-4.809,4.168,23.268,23.268,0,0,0-4.889,9.217A54.939,54.939,0,0,0,117.85,410.93h9.139A3.733,3.733,0,0,0,121.3,408.2Z" fill="#ff9a1d"/>
    <path id="Path_4833" data-name="Path 4833" d="M76.968,380.393a22.9,22.9,0,0,1,4.809,4.168,23.268,23.268,0,0,1,4.889,9.217A54.96,54.96,0,0,1,71.678,410.93H65.416a4.905,4.905,0,0,1,1.9-4.544Q72.141,393.389,76.968,380.393Z" fill="#ff9a1d"/>
    <path id="Path_4834" data-name="Path 4834" d="M122.855,331.256q.538,3.145,1.078,6.291a94.9,94.9,0,0,1-41.519,7.728,38.975,38.975,0,0,0,2.426-13.3Z" fill="#f56811"/>
    <path id="Path_4835" data-name="Path 4835" d="M144.11,273.713a6.469,6.469,0,0,1,4.321,2.56,71.221,71.221,0,0,1,13.918,45.192,5.668,5.668,0,0,1-3.828,5.173,175.982,175.982,0,0,1-30.454,7.374,180.093,180.093,0,0,1-71.37-3.886,6.279,6.279,0,0,1-4.473-4.3,92.8,92.8,0,0,1-3.269-36.262,6.55,6.55,0,0,1,4.155-5.42,181.041,181.041,0,0,1,29.424-8.608A183.4,183.4,0,0,1,144.11,273.713Z" fill="#2b2045"/>
    <path id="Path_4836" data-name="Path 4836" d="M154.884,306.718A17.181,17.181,0,0,1,137.7,323.894c-.554,0-1.1-.029-1.632-.079a17.168,17.168,0,1,1,18.815-17.1Z" fill="#6bbdff"/>
    <path id="Path_4837" data-name="Path 4837" d="M143.884,272.122a6.2,6.2,0,0,1,2.157,5.572l-30.915.36a11.853,11.853,0,0,1-8.807,8.447,12,12,0,0,1-12.941-6.47l-38.284,6.65a3.792,3.792,0,0,1-1.079-2.037,3.86,3.86,0,0,1,.6-2.756,235.1,235.1,0,0,1,89.269-9.766Z" fill="#ff9a1d"/>
    <path id="Path_4838" data-name="Path 4838" d="M150.843,295.661a31.6,31.6,0,0,0-7.5,6.657c-6.342,7.779-7.269,16.68-7.276,21.5a17.078,17.078,0,0,1-9.181-3.753,33.58,33.58,0,0,0,8.728-8.038,35.351,35.351,0,0,0,6.83-21.82A17.063,17.063,0,0,1,150.843,295.661Z" fill="#b3ddff"/>
    <path id="Path_4839" data-name="Path 4839" d="M93.414,310.672a17.181,17.181,0,0,1-17.183,17.176c-.554,0-1.1-.029-1.632-.079a17.169,17.169,0,1,1,18.815-17.1Z" fill="#6bbdff"/>
    <path id="Path_4840" data-name="Path 4840" d="M89.373,299.615a31.618,31.618,0,0,0-7.5,6.657c-6.342,7.779-7.269,16.68-7.276,21.5a17.073,17.073,0,0,1-9.181-3.753,33.561,33.561,0,0,0,8.728-8.038,35.35,35.35,0,0,0,6.83-21.82A17.063,17.063,0,0,1,89.373,299.615Z" fill="#b3ddff"/>
    <path id="Path_4841" data-name="Path 4841" d="M137.7,355.341a4.5,4.5,0,1,1-4.48-4.943A4.728,4.728,0,0,1,137.7,355.341Z" fill="#ff9a1d"/>
    <circle id="Ellipse_447" data-name="Ellipse 447" cx="4.853" cy="4.853" r="4.853" transform="translate(100.028 274.219)" fill="#263959"/>
    <path id="Path_4842" data-name="Path 4842" d="M107.577,279.072a2.7,2.7,0,1,1-2.7-2.7A2.7,2.7,0,0,1,107.577,279.072Z" fill="#172236"/>
    <path id="Path_4843" data-name="Path 4843" d="M159.7,309.328a87.191,87.191,0,0,1-8.388,5.033c-36.313,19.1-77.666,7.935-99.215,0a26.571,26.571,0,0,0,3.116,13.18,164.956,164.956,0,0,0,104.007-4.074,46.455,46.455,0,0,0,.48-14.139Z" fill="#84007d" opacity="0.35" style="mix-blend-mode: multiply;isolation: isolate"/>
    <path id="Path_4844" data-name="Path 4844" d="M120.159,335.929q-.36-2.472-.719-4.943-3.749.564-7.819.989c-3.41.35-6.681.581-9.8.719q-.358,2.291-.719,4.583a29.977,29.977,0,0,0,19.053-1.348Z" fill="#ff9a1d"/>
    <path id="Path_4845" data-name="Path 4845" d="M153.47,287.64a95.394,95.394,0,0,1-16.244,6.5s-4.275,1.269-8.974,2.2c-9.519,1.877-38.383,3.092-77.232,2.45a41.51,41.51,0,0,0,.958,12.822,274.792,274.792,0,0,1,106.764-8.148,67.87,67.87,0,0,0-3.115-10.785C154.94,290.872,154.212,289.194,153.47,287.64Z" fill="#006dab" opacity="0.63" style="mix-blend-mode: screen;isolation: isolate"/>
    <path id="Path_4846" data-name="Path 4846" d="M111.531,382.66a5.64,5.64,0,0,0-4.194-.239c-2.7,1.094-4.345,5.133-3.115,9.706a11.249,11.249,0,0,0,7.309-9.467Z" fill="#263959"/>
    <path id="Path_4847" data-name="Path 4847" d="M78.34,382.421a6.519,6.519,0,0,1,6.59,0c2.637,1.79,3.463,6.245.959,9.825a25.955,25.955,0,0,1-7.549-9.825Z" fill="#263959"/>
    <path id="Path_4848" data-name="Path 4848" d="M69.233,349.895a4.208,4.208,0,1,1-4.194-4.548A4.382,4.382,0,0,1,69.233,349.895Z" fill="#ff9a1d"/>
    <g id="Group_3938" data-name="Group 3938">
      <rect id="Rectangle_1728" data-name="Rectangle 1728" width="4.943" height="4.943" transform="translate(91.33 350.315) rotate(7.879)" fill="#263959"/>
      <rect id="Rectangle_1729" data-name="Rectangle 1729" width="4.943" height="4.943" transform="matrix(0.991, 0.137, -0.137, 0.991, 95.548, 355.889)" fill="#263959"/>
      <rect id="Rectangle_1730" data-name="Rectangle 1730" width="4.943" height="4.943" transform="matrix(0.991, 0.137, -0.137, 0.991, 101.092, 351.666)" fill="#263959"/>
      <rect id="Rectangle_1731" data-name="Rectangle 1731" width="4.943" height="4.943" transform="translate(105.311 357.24) rotate(7.879)" fill="#263959"/>
      <rect id="Rectangle_1732" data-name="Rectangle 1732" width="4.943" height="4.943" transform="matrix(0.991, 0.137, -0.137, 0.991, 110.855, 353.017)" fill="#263959"/>
    </g>
    <g id="Group_3939" data-name="Group 3939">
      <path id="Path_4849" data-name="Path 4849" d="M110.229,404.5a.36.36,0,0,1-.176-.674l7.234-4.044a.36.36,0,0,1,.351.628l-7.234,4.044A.361.361,0,0,1,110.229,404.5Z" fill="#263959"/>
    </g>
    <ellipse id="Ellipse_448" data-name="Ellipse 448" cx="1.455" cy="2.688" rx="1.455" ry="2.688" transform="matrix(0.956, -0.293, 0.293, 0.956, 116.199, 397.548)" fill="#263959"/>
    <path id="Path_4850" data-name="Path 4850" d="M75.869,399.931c-.783,1.669-2.505,2.512-3.848,1.882s-1.8-2.492-1.014-4.161,2.5-2.511,3.847-1.881S76.651,398.263,75.869,399.931Z" fill="#263959"/>
    <g id="Group_3940" data-name="Group 3940">
      <path id="Path_4851" data-name="Path 4851" d="M80.334,403.194a.366.366,0,0,1-.185-.051L73.422,399.1a.359.359,0,1,1,.37-.616l6.727,4.042a.359.359,0,0,1-.185.668Z" fill="#263959"/>
    </g>
    <path id="Path_4852" data-name="Path 4852" d="M126.989,410.93l-.4,1.746H117.5l.352-1.746a1.941,1.941,0,0,1,.528-2.028c.686-.43,2.105-.005,2.769,1.438Z" fill="#263959"/>
    <path id="Path_4853" data-name="Path 4853" d="M72.675,412.676H65.091l.314-1.746,6.067-.221q1.53-1.587,1.925-1.343Q73.877,409.665,72.675,412.676Z" fill="#263959"/>
    <path id="Path_4854" data-name="Path 4854" d="M162.816,336.169a6.669,6.669,0,0,0-1.917-5.752,6.039,6.039,0,0,0-3.6-1.438l-15.337,11.5a4.021,4.021,0,0,0,.479,3.355,4.108,4.108,0,0,0,3.355,1.678Z" fill="#ff9a1d"/>
    <path id="Path_4855" data-name="Path 4855" d="M157.005,286.5l6.29-8.807q-13.659-22.377-27.32-44.754l-4.134.539Z" fill="#ff9a1d"/>
    <path id="Path_4856" data-name="Path 4856" d="M162.337,286.561c-.531.123-.818,1.14-.719,1.917.145,1.149,1.186,2.219,1.8,2.037.514-.152.705-1.182.6-1.917C163.858,287.512,162.958,286.418,162.337,286.561Z" fill="#f56811"/>
    <path id="Path_4857" data-name="Path 4857" d="M166.65,290.734c-.53.122-.817,1.139-.719,1.917.146,1.148,1.186,2.218,1.8,2.037.514-.152.705-1.183.6-1.917C168.171,291.684,167.271,290.59,166.65,290.734Z" fill="#f56811"/>
    <path id="Path_4858" data-name="Path 4858" d="M164.954,296.126c-.531.122-.818,1.139-.719,1.917.145,1.148,1.186,2.218,1.8,2.037.514-.152.705-1.183.6-1.917C166.475,297.076,165.575,295.982,164.954,296.126Z" fill="#f56811"/>
    <g id="Group_3941" data-name="Group 3941">
      <path id="Path_4859" data-name="Path 4859" d="M119.056,373.612l-.069,0-5.535-.528-1.208-4.713-24.45-4.287-3.159,3.28-8.812-2.769a.719.719,0,0,1,.431-1.372l7.963,2.5,3.072-3.191,26.117,4.581,1.188,4.633,4.53.432a.719.719,0,0,1-.068,1.434Z" fill="#fff"/>
    </g>
  </g>
</svg>
